<?xml version="1.0" encoding="UTF-8"?>
<svg xmlns="http://www.w3.org/2000/svg" xmlns:xlink="http://www.w3.org/1999/xlink" width="744pt" height="216pt" viewBox="0 0 744 216">
<rect x="-74.4" y="-21.6" width="892.8" height="259.2" fill="rgb(100%, 30.198669%, 30.198669%)" fill-opacity="1"/>
<path fill-rule="nonzero" fill="rgb(100%, 100%, 100%)" fill-opacity="1" d="M 88.992188 48.082031 C 86.042969 48.5625 84 51.332031 84 54.320312 L 84 75.515625 L 58.46875 49.984375 C 56.355469 47.871094 52.953125 47.355469 50.527344 49.101562 C 47.4375 51.328125 47.179688 55.667969 49.757812 58.242188 L 75.515625 84 L 54.320312 84 C 51.332031 84 48.5625 86.042969 48.082031 88.992188 C 47.46875 92.75 50.355469 96 54 96 L 88 96 C 92.417969 96 96 92.417969 96 88 L 96 54 C 96 50.355469 92.75 47.46875 88.992188 48.082031 "/>
<path fill-rule="nonzero" fill="rgb(100%, 100%, 100%)" fill-opacity="1" d="M 161.679688 84 L 140.484375 84 L 166.015625 58.46875 C 168.128906 56.355469 168.644531 52.953125 166.898438 50.527344 C 164.671875 47.4375 160.332031 47.179688 157.757812 49.757812 L 132 75.515625 L 132 54.320312 C 132 51.332031 129.957031 48.5625 127.007812 48.082031 C 123.25 47.472656 120 50.355469 120 54 L 120 88 C 120 92.417969 123.582031 96 128 96 L 162 96 C 165.644531 96 168.53125 92.75 167.917969 88.992188 C 167.4375 86.042969 164.667969 84 161.679688 84 "/>
<path fill-rule="nonzero" fill="rgb(100%, 100%, 100%)" fill-opacity="1" d="M 140.484375 132 L 161.679688 132 C 164.667969 132 167.4375 129.957031 167.917969 127.007812 C 168.53125 123.246094 165.644531 120 162 120 L 128 120 C 123.582031 120 120 123.582031 120 128 L 120 161.679688 C 120 164.667969 122.042969 167.4375 124.992188 167.917969 C 128.75 168.527344 132 165.644531 132 162 L 132 140.484375 L 157.53125 166.015625 C 159.644531 168.128906 163.046875 168.644531 165.472656 166.898438 C 168.5625 164.671875 168.820312 160.335938 166.242188 157.757812 Z M 140.484375 132 "/>
<path fill-rule="nonzero" fill="rgb(100%, 100%, 100%)" fill-opacity="1" d="M 84 120 L 54.320312 120 C 51.332031 120 48.5625 122.042969 48.082031 124.992188 C 47.472656 128.75 50.355469 132 54 132 L 75.515625 132 L 49.984375 157.53125 C 47.871094 159.644531 47.355469 163.046875 49.101562 165.472656 C 51.328125 168.5625 55.664062 168.820312 58.242188 166.242188 L 84 140.484375 L 84 161.679688 C 84 164.667969 86.042969 167.4375 88.992188 167.917969 C 92.75 168.527344 96 165.644531 96 162 L 96 128 C 96 123.582031 92.417969 120 88 120 Z M 84 120 "/>
<path fill-rule="nonzero" fill="rgb(6.298828%, 9.399414%, 15.699768%)" fill-opacity="1" d="M 116 108 C 116 112.417969 112.417969 116 108 116 C 103.582031 116 100 112.417969 100 108 C 100 103.582031 103.582031 100 108 100 C 112.417969 100 116 103.582031 116 108 "/>
<path fill-rule="nonzero" fill="rgb(100%, 100%, 100%)" fill-opacity="1" d="M 234.578125 76.675781 C 225.734375 76.675781 220.472656 80.984375 220.4375 86.855469 C 220.359375 93.371094 227.296875 96.078125 233.699219 97.605469 L 241.019531 99.433594 C 252.761719 102.214844 263.929688 108.390625 263.96875 121.925781 C 263.929688 135.683594 253.066406 145.023438 234.347656 145.023438 C 216.164062 145.023438 204.617188 136.296875 204.042969 120.78125 L 217.957031 120.78125 C 218.53125 128.976562 225.390625 132.941406 234.234375 132.941406 C 243.460938 132.941406 249.789062 128.480469 249.824219 121.808594 C 249.789062 115.75 244.222656 113.117188 235.796875 110.984375 L 226.914062 108.695312 C 214.070312 105.378906 206.101562 98.9375 206.101562 87.730469 C 206.066406 73.929688 218.375 64.707031 234.769531 64.707031 C 251.390625 64.707031 262.632812 74.046875 262.902344 87.234375 L 249.292969 87.234375 C 248.566406 80.601562 243 76.675781 234.578125 76.675781 "/>
<path fill-rule="nonzero" fill="rgb(100%, 100%, 100%)" fill-opacity="1" d="M 279.988281 83.886719 C 283.628906 83.886719 286.582031 86.839844 286.582031 90.480469 L 286.582031 95.242188 L 287.269531 95.242188 C 289.710938 88.570312 295.578125 84.53125 303.433594 84.53125 C 311.320312 84.53125 317.003906 88.605469 319.25 95.242188 L 319.859375 95.242188 C 322.453125 88.722656 328.933594 84.53125 337.433594 84.53125 C 348.183594 84.53125 355.730469 91.464844 355.730469 104.542969 L 355.730469 143.84375 L 341.894531 143.84375 L 341.894531 106.675781 C 341.894531 99.433594 337.472656 96.15625 331.90625 96.15625 C 325.234375 96.15625 321.308594 100.730469 321.308594 107.324219 L 321.308594 143.84375 L 307.777344 143.84375 L 307.777344 106.105469 C 307.777344 100.082031 303.773438 96.15625 297.941406 96.15625 C 291.996094 96.15625 287.191406 101.035156 287.191406 108.238281 L 287.191406 143.84375 L 273.394531 143.84375 L 273.394531 90.480469 C 273.394531 86.839844 276.347656 83.886719 279.988281 83.886719 "/>
<path fill-rule="nonzero" fill="rgb(100%, 100%, 100%)" fill-opacity="1" d="M 401.398438 122.839844 L 401.398438 115.9375 C 399.609375 117.386719 392.367188 118.304688 388.742188 118.796875 C 382.570312 119.675781 377.957031 121.886719 377.957031 127.183594 C 377.957031 132.253906 382.074219 134.886719 387.828125 134.886719 C 396.140625 134.886719 401.398438 129.355469 401.398438 122.839844 M 364.652344 127.414062 C 364.652344 114.222656 375.515625 110.832031 386.875 109.609375 C 397.207031 108.507812 401.363281 108.316406 401.363281 104.351562 L 401.363281 104.121094 C 401.363281 98.367188 397.855469 95.089844 391.449219 95.089844 C 384.703125 95.089844 380.816406 98.519531 379.441406 102.519531 L 366.558594 100.691406 C 369.609375 90.019531 379.0625 84.527344 391.375 84.527344 C 402.542969 84.527344 415.160156 89.179688 415.160156 104.65625 L 415.160156 143.84375 L 401.894531 143.84375 L 401.894531 135.800781 L 401.4375 135.800781 C 398.921875 140.71875 393.433594 145.023438 384.246094 145.023438 C 373.078125 145.023438 364.652344 138.925781 364.652344 127.414062 "/>
<path fill-rule="nonzero" fill="rgb(100%, 100%, 100%)" fill-opacity="1" d="M 441.128906 143.84375 L 427.332031 143.84375 L 427.332031 72.675781 C 427.332031 68.863281 430.417969 65.773438 434.230469 65.773438 C 438.039062 65.773438 441.128906 68.863281 441.128906 72.675781 Z M 441.128906 143.84375 "/>
<path fill-rule="nonzero" fill="rgb(100%, 100%, 100%)" fill-opacity="1" d="M 467.472656 143.84375 L 453.675781 143.84375 L 453.675781 72.675781 C 453.675781 68.863281 456.765625 65.773438 460.574219 65.773438 C 464.386719 65.773438 467.472656 68.863281 467.472656 72.675781 Z M 467.472656 143.84375 "/>
<path fill-rule="nonzero" fill="rgb(100%, 100%, 100%)" fill-opacity="1" d="M 524.792969 105.835938 C 535.3125 105.835938 540.003906 99.929688 540.003906 91.617188 C 540.003906 83.308594 535.3125 77.589844 524.71875 77.589844 L 511.757812 77.589844 L 511.757812 105.835938 Z M 497.613281 65.773438 L 526.890625 65.773438 C 544.84375 65.773438 554.410156 76.714844 554.410156 91.617188 C 554.410156 106.636719 544.730469 117.464844 526.699219 117.464844 L 511.757812 117.464844 L 511.757812 143.84375 L 497.613281 143.84375 Z M 497.613281 65.773438 "/>
<path fill-rule="nonzero" fill="rgb(100%, 100%, 100%)" fill-opacity="1" d="M 569.964844 86.28125 C 573.777344 86.28125 576.867188 89.371094 576.867188 93.183594 L 576.867188 143.84375 L 563.066406 143.84375 L 563.066406 93.183594 C 563.066406 89.371094 566.15625 86.28125 569.964844 86.28125 "/>
<path fill-rule="nonzero" fill="rgb(100%, 100%, 100%)" fill-opacity="1" d="M 586.527344 114.796875 C 586.527344 96.917969 597.355469 84.527344 614.507812 84.527344 C 628.804688 84.527344 638.714844 92.875 639.667969 105.570312 L 626.476562 105.570312 C 625.410156 99.929688 621.332031 95.660156 614.699219 95.660156 C 606.199219 95.660156 600.519531 102.75 600.519531 114.566406 C 600.519531 126.535156 606.082031 133.742188 614.699219 133.742188 C 620.757812 133.742188 625.296875 130.121094 626.476562 123.828125 L 639.667969 123.828125 C 638.675781 136.257812 629.296875 144.988281 614.585938 144.988281 C 597.085938 144.988281 586.527344 132.523438 586.527344 114.796875 "/>
<path fill-rule="nonzero" fill="rgb(100%, 100%, 100%)" fill-opacity="1" d="M 682.164062 102.140625 C 681.09375 98.289062 677.742188 94.820312 671.375 94.820312 C 665.617188 94.820312 661.234375 97.566406 661.273438 101.53125 C 661.234375 104.921875 663.597656 106.980469 669.542969 108.316406 L 679.53125 110.449219 C 690.585938 112.851562 695.960938 117.960938 696 126.308594 C 695.960938 137.402344 685.632812 144.984375 670.992188 144.984375 C 656.621094 144.984375 647.585938 138.621094 645.871094 127.871094 L 659.328125 126.574219 C 660.511719 131.835938 664.628906 134.582031 670.957031 134.582031 C 677.511719 134.582031 681.859375 131.566406 681.859375 127.566406 C 681.859375 124.25 679.339844 122.078125 673.964844 120.894531 L 663.980469 118.796875 C 652.734375 116.472656 647.472656 110.832031 647.511719 102.292969 C 647.472656 91.46875 657.078125 84.527344 671.183594 84.527344 C 684.90625 84.527344 692.835938 90.855469 694.742188 100.769531 Z M 682.164062 102.140625 "/>
<path fill-rule="nonzero" fill="rgb(100%, 100%, 100%)" fill-opacity="1" d="M 577.96875 69.984375 C 577.96875 74.398438 574.394531 77.972656 569.984375 77.972656 C 565.574219 77.972656 562 74.398438 562 69.984375 C 562 65.574219 565.574219 62 569.984375 62 C 574.394531 62 577.96875 65.574219 577.96875 69.984375 "/>
</svg>
