<svg width="180" height="180" viewBox="0 0 180 180" fill="none" xmlns="http://www.w3.org/2000/svg">
<path d="M180 0H0V180H180V0Z" fill="#FF4D4D"/>
<path d="M64.6569 10.1101C60.7246 10.7507 58.0007 14.4434 58.0007 18.4278V46.6882L23.959 12.6465C21.1413 9.82881 16.6048 9.14131 13.3705 11.4694C9.25068 14.4382 8.90693 20.2246 12.3444 23.6569L46.6882 58.0007H18.4278C14.4434 58.0007 10.7507 60.7246 10.1101 64.6569C9.29235 69.6674 13.1413 74.0007 18.0007 74.0007H63.334C69.2246 74.0007 74.0007 69.2246 74.0007 63.334V18.0007C74.0007 13.1413 69.6674 9.29235 64.6569 10.1101Z" fill="white"/>
<path d="M161.574 58.0007H133.313L167.355 23.959C170.173 21.1413 170.86 16.6048 168.532 13.3705C165.563 9.25067 159.777 8.90692 156.344 12.3444L122.001 46.6882V18.4278C122.001 14.4434 119.277 10.7507 115.344 10.11C110.334 9.29755 106.001 13.1413 106.001 18.0007V63.334C106.001 69.2246 110.777 74.0007 116.667 74.0007H162.001C166.86 74.0007 170.709 69.6673 169.891 64.6569C169.251 60.7246 165.558 58.0007 161.574 58.0007Z" fill="white"/>
<path d="M133.313 122.001H161.574C165.558 122.001 169.251 119.277 169.891 115.344C170.709 110.329 166.86 106.001 162.001 106.001H116.667C110.777 106.001 106.001 110.777 106.001 116.667V161.574C106.001 165.558 108.725 169.251 112.657 169.891C117.667 170.704 122.001 166.86 122.001 162.001V133.313L156.042 167.355C158.86 170.173 163.397 170.86 166.631 168.532C170.751 165.563 171.094 159.782 167.657 156.344L133.313 122.001Z" fill="white"/>
<path d="M58.0007 106.001H18.4278C14.4434 106.001 10.7507 108.725 10.11 112.657C9.29754 117.667 13.1413 122.001 18.0007 122.001H46.6882L12.6465 156.042C9.82879 158.86 9.1413 163.397 11.4694 166.631C14.4382 170.751 20.2194 171.094 23.6569 167.657L58.0007 133.313V161.574C58.0007 165.558 60.7246 169.251 64.6569 169.891C69.6673 170.704 74.0007 166.86 74.0007 162.001V116.667C74.0007 110.777 69.2246 106.001 63.334 106.001H58.0007Z" fill="white"/>
<path d="M100.667 90.0007C100.667 95.8913 95.8913 100.667 90.0007 100.667C84.11 100.667 79.334 95.8913 79.334 90.0007C79.334 84.11 84.11 79.334 90.0007 79.334C95.8913 79.334 100.667 84.11 100.667 90.0007Z" fill="#101828"/>
</svg>
