<?xml version="1.0" encoding="UTF-8"?>
<svg xmlns="http://www.w3.org/2000/svg" xmlns:xlink="http://www.w3.org/1999/xlink" width="216pt" height="216pt" viewBox="0 0 216 216">
<rect x="-21.6" y="-21.6" width="259.2" height="259.2" fill="rgb(100%, 30.198669%, 30.198669%)" fill-opacity="1"/>
<path fill-rule="nonzero" fill="rgb(100%, 100%, 100%)" fill-opacity="1" d="M 88.992188 48.082031 C 86.042969 48.5625 84 51.332031 84 54.320312 L 84 75.515625 L 58.46875 49.984375 C 56.355469 47.871094 52.953125 47.355469 50.527344 49.101562 C 47.4375 51.328125 47.179688 55.667969 49.757812 58.242188 L 75.515625 84 L 54.320312 84 C 51.332031 84 48.5625 86.042969 48.082031 88.992188 C 47.46875 92.75 50.355469 96 54 96 L 88 96 C 92.417969 96 96 92.417969 96 88 L 96 54 C 96 50.355469 92.75 47.46875 88.992188 48.082031 "/>
<path fill-rule="nonzero" fill="rgb(100%, 100%, 100%)" fill-opacity="1" d="M 161.679688 84 L 140.484375 84 L 166.015625 58.46875 C 168.128906 56.355469 168.644531 52.953125 166.898438 50.527344 C 164.671875 47.4375 160.332031 47.179688 157.757812 49.757812 L 132 75.515625 L 132 54.320312 C 132 51.332031 129.957031 48.5625 127.007812 48.082031 C 123.25 47.472656 120 50.355469 120 54 L 120 88 C 120 92.417969 123.582031 96 128 96 L 162 96 C 165.644531 96 168.53125 92.75 167.917969 88.992188 C 167.4375 86.042969 164.667969 84 161.679688 84 "/>
<path fill-rule="nonzero" fill="rgb(100%, 100%, 100%)" fill-opacity="1" d="M 140.484375 132 L 161.679688 132 C 164.667969 132 167.4375 129.957031 167.917969 127.007812 C 168.53125 123.246094 165.644531 120 162 120 L 128 120 C 123.582031 120 120 123.582031 120 128 L 120 161.679688 C 120 164.667969 122.042969 167.4375 124.992188 167.917969 C 128.75 168.527344 132 165.644531 132 162 L 132 140.484375 L 157.53125 166.015625 C 159.644531 168.128906 163.046875 168.644531 165.472656 166.898438 C 168.5625 164.671875 168.820312 160.335938 166.242188 157.757812 Z M 140.484375 132 "/>
<path fill-rule="nonzero" fill="rgb(100%, 100%, 100%)" fill-opacity="1" d="M 84 120 L 54.320312 120 C 51.332031 120 48.5625 122.042969 48.082031 124.992188 C 47.472656 128.75 50.355469 132 54 132 L 75.515625 132 L 49.984375 157.53125 C 47.871094 159.644531 47.355469 163.046875 49.101562 165.472656 C 51.328125 168.5625 55.664062 168.820312 58.242188 166.242188 L 84 140.484375 L 84 161.679688 C 84 164.667969 86.042969 167.4375 88.992188 167.917969 C 92.75 168.527344 96 165.644531 96 162 L 96 128 C 96 123.582031 92.417969 120 88 120 Z M 84 120 "/>
<path fill-rule="nonzero" fill="rgb(6.298828%, 9.399414%, 15.699768%)" fill-opacity="1" d="M 116 108 C 116 112.417969 112.417969 116 108 116 C 103.582031 116 100 112.417969 100 108 C 100 103.582031 103.582031 100 108 100 C 112.417969 100 116 103.582031 116 108 "/>
</svg>
